<?xml version="1.0" encoding="UTF-8"?>
<svg width="18px" height="18.0000001px" viewBox="0 0 18 18.0000001" version="1.1" xmlns="http://www.w3.org/2000/svg" xmlns:xlink="http://www.w3.org/1999/xlink">
    <title>ic_1</title>
    <g id="页面-1" stroke="none" stroke-width="1" fill="none" fill-rule="evenodd">
        <g id="1" transform="translate(-675, -303)" fill="#7C7C7C" fill-rule="nonzero">
            <g id="google-scholar" transform="translate(675, 303)">
                <path d="M10.020885,11.1740199 C9.92925206,11.1623755 9.78827829,11.1577177 9.59796371,11.1577177 C9.29252056,11.1577177 8.99177653,11.1786777 8.69338207,11.2182689 C8.39733716,11.25786 8.08719488,11.3300556 7.76765435,11.4325268 C7.44811382,11.5349981 7.16851586,11.6677449 6.92886046,11.8261095 C6.68920506,11.9868029 6.4918418,12.198732 6.33677066,12.4642256 C6.18169952,12.7297192 6.10416395,13.0324751 6.10416395,13.3678354 C6.10416395,13.6868935 6.17230127,13.9803338 6.30622634,14.2411696 C6.44250098,14.5043343 6.61871818,14.7209212 6.83487795,14.8886014 C7.05103772,15.0562815 7.30244093,15.2006728 7.58673802,15.3171174 C7.87103511,15.4335619 8.16003133,15.517402 8.4513771,15.5663087 C8.74272288,15.6152154 9.03406866,15.6385043 9.33011356,15.6385043 C9.66375147,15.6385043 9.98564156,15.6012421 10.2934343,15.5267176 C10.601227,15.452193 10.8878736,15.3404063 11.1486751,15.1913572 C11.4118261,15.0423082 11.6209372,14.8350369 11.7807075,14.5648855 C11.9381282,14.297063 12.0180133,13.9849916 12.0180133,13.6310001 C12.0180133,13.4889378 11.9968672,13.3492043 11.9569247,13.2117997 C11.9169821,13.0743951 11.87469,12.9556217 11.8323979,12.8508216 C11.7901057,12.7483504 11.7102206,12.6295769 11.5997911,12.4945012 C11.4870121,12.3594255 11.4024279,12.2592832 11.3436888,12.1940743 C11.2849497,12.1288653 11.1745203,12.028723 11.0100509,11.8983051 C10.8455815,11.7678872 10.7398512,11.6840471 10.6952095,11.6491137 C10.6482182,11.6141804 10.5283905,11.5280114 10.3357264,11.3929357 C10.1430623,11.25786 10.0373319,11.1833355 10.020885,11.1740199 L10.020885,11.1740199 Z M10.4438063,4.0965196 C10.2652395,3.74019925 10.0232346,3.44443007 9.71779141,3.20921206 C9.41234826,2.97399405 9.07401123,2.85754949 8.70512988,2.85754949 C8.46312492,2.85754949 8.22581908,2.91344288 7.99086281,3.02522965 C7.7582561,3.13701643 7.56559196,3.28606547 7.41521995,3.47470565 C7.14971936,3.81239488 7.01814385,4.26885755 7.01814385,4.84642256 C7.01814385,5.10958727 7.0463386,5.38672532 7.10507767,5.6824945 C7.16381673,5.97593479 7.25310012,6.27170397 7.37762694,6.56514426 C7.50215377,6.85858455 7.65252578,7.12407815 7.82639342,7.35696727 C8.00261063,7.59218528 8.2187704,7.78315435 8.47487273,7.93220339 C8.73097507,8.08125243 9.01057303,8.15577694 9.3089675,8.15577694 C9.52277771,8.15577694 9.74598616,8.10919912 9.97859287,8.01371458 C10.2111996,7.92055893 10.4015142,7.79479881 10.5448375,7.64109199 C10.8502806,7.3220339 11.0030022,6.86790012 11.0030022,6.27869065 C11.0030022,5.94100142 10.9536614,5.58235218 10.8549798,5.20274292 C10.7609973,4.82313365 10.6223731,4.45516884 10.4438063,4.0965196 L10.4438063,4.0965196 Z" id="形状"></path>
                <path d="M16.1203498,-4.23622839e-16 L1.87965018,-4.23622839e-16 C0.845842579,-4.23622839e-16 0,0.838400828 0,1.86311295 L0,16.136887 C0,17.1615992 0.845842579,18 1.87965018,18 L16.1203498,18 C17.1541574,18 18,17.1615992 18,16.136887 L18,1.86311295 C18,0.838400828 17.1541574,-4.23622839e-16 16.1203498,-4.23622839e-16 Z M15.1382326,1.65584164 C15.1382326,1.65584164 14.6988644,2.18682883 15.2369142,3.15564756 C15.2369142,3.15564756 15.3355959,3.46073231 15.3191489,3.65635917 C15.3191489,3.65635917 15.1429317,4.5739423 15.3214985,5.37973865 C15.3214985,5.37973865 15.5306096,7.91124337 15.3332463,8.34441713 C15.3332463,8.34441713 15.2533612,8.92431104 14.684767,8.81252426 C14.684767,8.81252426 14.1655136,8.81252426 14.179611,7.82973218 C14.179611,7.82973218 14.1138233,7.16832708 14.179611,5.91072584 C14.179611,5.91072584 14.2782927,4.91163152 14.2453988,4.2828309 C14.2453988,4.2828309 14.1467171,3.50963902 14.2782927,3.23482986 C14.2782927,3.23482986 14.6025323,2.79932721 14.5390941,2.13792211 L14.5273463,2.09367318 L12.2083279,3.89623496 C12.2388722,3.94747057 12.2694165,3.99637728 12.2976113,4.04761289 C12.5161206,4.44818217 12.6265501,4.90464484 12.6265501,5.4193298 C12.6265501,5.83154354 12.5560632,6.20183724 12.4150894,6.53021089 C12.2741157,6.85858455 12.1025976,7.12407815 11.9005352,7.32669168 C11.6984728,7.52930521 11.49876,7.71561651 11.2990471,7.88329667 C11.0993343,8.05097684 10.9301658,8.22797257 10.789192,8.40962608 C10.6482182,8.59360849 10.5777314,8.77991978 10.5777314,8.97554664 C10.5777314,9.18048907 10.6693643,9.3831026 10.8549798,9.57872946 C11.0405952,9.77668521 11.2614541,9.96998318 11.519906,10.1609523 C11.7783579,10.3519213 12.0391594,10.5615215 12.3023104,10.7920818 C12.5654614,11.0203131 12.7886699,11.3184112 12.9719358,11.6840471 C13.1575512,12.049683 13.2491842,12.4549101 13.2491842,12.9020572 C13.2491842,13.4213999 13.1082104,13.9174537 12.8262629,14.3855609 C12.417439,15.0818993 11.8136014,15.5965843 11.01475,15.924958 C10.2158987,16.2533316 9.35595875,16.4186829 8.4325806,16.4186829 C7.67132228,16.4186829 6.96175434,16.2999094 6.30152722,16.0623625 C5.64130009,15.8248156 5.14319279,15.431233 4.80955489,14.8839436 C4.60279337,14.5462544 4.49706305,14.1736318 4.49706305,13.761418 C4.49706305,13.2979687 4.626289,12.8694527 4.88239133,12.4758701 C5.13849367,12.0822875 5.48152983,11.7539138 5.90680068,11.4907491 C6.65866075,11.022642 7.82404386,10.7361884 9.39825088,10.6337172 C9.21263543,10.3984992 9.07636079,10.188899 8.98707741,10.0025877 C8.89779402,9.81627636 8.85315233,9.60667615 8.85315233,9.37145814 C8.85315233,9.14322681 8.91424096,8.90102212 9.03406866,8.6425152 C8.76856807,8.66580411 8.57355437,8.67744857 8.44667798,8.67744857 C7.59378671,8.67744857 6.87482052,8.40263941 6.2897794,7.8506922 C5.70473828,7.29874499 5.41104294,6.60007763 5.41104294,5.75469013 C5.41104294,5.65454781 5.41574207,5.55673438 5.42514032,5.45892095 L2.1615977,5.45892095 L7.26719749,1.07594773 L15.8360527,1.07594773 L15.09829,1.64885496 L15.1382326,1.65584164 Z" id="形状"></path>
            </g>
        </g>
    </g>
</svg>