<?xml version="1.0" encoding="UTF-8"?>
<svg width="19px" height="16px" viewBox="0 0 19 16" version="1.1" xmlns="http://www.w3.org/2000/svg" xmlns:xlink="http://www.w3.org/1999/xlink">
    <title>ic_3</title>
    <g id="页面-1" stroke="none" stroke-width="1" fill="none" fill-rule="evenodd">
        <g id="1" transform="translate(-736, -305)" fill="#7C7C7C" fill-rule="nonzero">
            <g id="编组-2" transform="translate(675, 303)">
                <g id="推特1" transform="translate(61, 2)">
                    <path d="M17.0655745,4.55422738 C17.0655745,4.37915004 17.062156,4.20604798 17.0542803,4.03413111 C17.816153,3.47647125 18.4771823,2.77840051 19,1.97958953 C18.2899977,2.29341648 17.5344825,2.49646267 16.7607315,2.58139734 C17.5660384,2.09458487 18.1836335,1.3160207 18.4754731,0.381704182 C17.7214426,0.830920143 16.8873808,1.15207085 16.000568,1.31941162 C15.2900051,0.525176737 14.2760068,0.0193026251 13.155032,0.000504367042 C11.0021625,-0.034458427 9.2569568,1.75269349 9.25695678,3.9916951 C9.25695678,4.30994873 9.2908394,4.61858921 9.35810191,4.91662894 C6.1161629,4.71169165 3.24338011,3.05402058 1.32172339,0.555069612 C0.986416256,1.15378279 0.794046162,1.85349961 0.794046162,2.60335608 C0.794046162,4.02162087 1.48225525,5.28215804 2.52792418,6.02598987 C1.88777411,5.99754556 1.28810889,5.80709381 0.762140875,5.49483192 L0.762140875,5.54691399 C0.762140875,7.52912671 2.10625159,9.18992533 3.88973027,9.57741318 C3.56276812,9.66877076 3.21790952,9.71630963 2.86323132,9.7145977 C2.61680368,9.71334697 2.37117671,9.68692236 2.1303146,9.63575035 C2.62588547,11.2601376 4.06618124,12.4468974 5.7713378,12.4864363 C4.43681208,13.5734105 2.75571855,14.2226913 0.930548507,14.2181481 C0.615852457,14.2181481 0.304876467,14.1974075 0,14.159811 C1.72580115,15.3227025 3.77437523,16 5.97657727,16 C13.1452124,16.0016787 17.0655745,9.87229241 17.0655745,4.55422738 L17.0655745,4.55422738 Z" id="路径"></path>
                </g>
            </g>
        </g>
    </g>
</svg>